<mxfile host="65bd71144e">
    <diagram name="Page-1" id="gHVVOiLYUv5s1kAgPCSN">
        <mxGraphModel dx="978" dy="792" grid="1" gridSize="10" guides="1" tooltips="1" connect="1" arrows="1" fold="1" page="1" pageScale="1" pageWidth="850" pageHeight="1100" math="0" shadow="0">
            <root>
                <mxCell id="0"/>
                <mxCell id="1" parent="0"/>
                <mxCell id="i2T4uCl2rIpVRViZEnEd-18" style="edgeStyle=orthogonalEdgeStyle;rounded=0;orthogonalLoop=1;jettySize=auto;html=1;entryX=1;entryY=0.5;entryDx=0;entryDy=0;endArrow=none;endFill=0;shape=link;" parent="1" source="i2T4uCl2rIpVRViZEnEd-20" target="i2T4uCl2rIpVRViZEnEd-3" edge="1">
                    <mxGeometry relative="1" as="geometry"/>
                </mxCell>
                <mxCell id="i2T4uCl2rIpVRViZEnEd-1" value="Wine(3)" style="whiteSpace=wrap;html=1;align=center;" parent="1" vertex="1">
                    <mxGeometry x="510" y="517.5" width="100" height="40" as="geometry"/>
                </mxCell>
                <mxCell id="i2T4uCl2rIpVRViZEnEd-2" value="Winery(2)" style="whiteSpace=wrap;html=1;align=center;" parent="1" vertex="1">
                    <mxGeometry x="510" y="290.5" width="100" height="40" as="geometry"/>
                </mxCell>
                <mxCell id="i2T4uCl2rIpVRViZEnEd-3" value="Rating(5)" style="whiteSpace=wrap;html=1;align=center;" parent="1" vertex="1">
                    <mxGeometry x="200" y="517.5" width="100" height="40" as="geometry"/>
                </mxCell>
                <mxCell id="i2T4uCl2rIpVRViZEnEd-12" style="edgeStyle=orthogonalEdgeStyle;rounded=0;orthogonalLoop=1;jettySize=auto;html=1;entryX=0.5;entryY=0;entryDx=0;entryDy=0;endArrow=none;endFill=0;exitX=0.5;exitY=1;exitDx=0;exitDy=0;shape=link;" parent="1" source="i2T4uCl2rIpVRViZEnEd-14" target="i2T4uCl2rIpVRViZEnEd-3" edge="1">
                    <mxGeometry relative="1" as="geometry"/>
                </mxCell>
                <mxCell id="i2T4uCl2rIpVRViZEnEd-38" style="edgeStyle=orthogonalEdgeStyle;rounded=0;orthogonalLoop=1;jettySize=auto;html=1;entryX=0.5;entryY=0;entryDx=0;entryDy=0;endArrow=none;endFill=0;" parent="1" source="i2T4uCl2rIpVRViZEnEd-4" target="i2T4uCl2rIpVRViZEnEd-14" edge="1">
                    <mxGeometry relative="1" as="geometry"/>
                </mxCell>
                <mxCell id="i2T4uCl2rIpVRViZEnEd-4" value="Users(4)" style="whiteSpace=wrap;html=1;align=center;" parent="1" vertex="1">
                    <mxGeometry x="200" y="290.5" width="100" height="40" as="geometry"/>
                </mxCell>
                <mxCell id="i2T4uCl2rIpVRViZEnEd-10" value="" style="edgeStyle=orthogonalEdgeStyle;rounded=0;orthogonalLoop=1;jettySize=auto;html=1;entryX=0.5;entryY=0;entryDx=0;entryDy=0;endArrow=none;endFill=0;" parent="1" source="i2T4uCl2rIpVRViZEnEd-2" target="i2T4uCl2rIpVRViZEnEd-11" edge="1">
                    <mxGeometry relative="1" as="geometry">
                        <mxPoint x="560" y="380" as="sourcePoint"/>
                        <mxPoint x="560" y="510" as="targetPoint"/>
                    </mxGeometry>
                </mxCell>
                <mxCell id="i2T4uCl2rIpVRViZEnEd-27" style="edgeStyle=orthogonalEdgeStyle;rounded=0;orthogonalLoop=1;jettySize=auto;html=1;entryX=0.5;entryY=0;entryDx=0;entryDy=0;endArrow=none;endFill=0;shape=link;" parent="1" source="i2T4uCl2rIpVRViZEnEd-11" target="i2T4uCl2rIpVRViZEnEd-1" edge="1">
                    <mxGeometry relative="1" as="geometry"/>
                </mxCell>
                <mxCell id="i2T4uCl2rIpVRViZEnEd-11" value="Creates" style="shape=rhombus;perimeter=rhombusPerimeter;whiteSpace=wrap;html=1;align=center;" parent="1" vertex="1">
                    <mxGeometry x="500" y="390" width="120" height="60" as="geometry"/>
                </mxCell>
                <mxCell id="i2T4uCl2rIpVRViZEnEd-15" value="1" style="text;html=1;align=center;verticalAlign=middle;resizable=0;points=[];autosize=1;strokeColor=none;fillColor=none;" parent="1" vertex="1">
                    <mxGeometry x="565" y="350" width="30" height="30" as="geometry"/>
                </mxCell>
                <mxCell id="i2T4uCl2rIpVRViZEnEd-14" value="Creates" style="shape=rhombus;perimeter=rhombusPerimeter;whiteSpace=wrap;html=1;align=center;" parent="1" vertex="1">
                    <mxGeometry x="190" y="383.75" width="120" height="60" as="geometry"/>
                </mxCell>
                <mxCell id="i2T4uCl2rIpVRViZEnEd-16" value="n" style="text;html=1;align=center;verticalAlign=middle;resizable=0;points=[];autosize=1;strokeColor=none;fillColor=none;" parent="1" vertex="1">
                    <mxGeometry x="565" y="477.5" width="30" height="30" as="geometry"/>
                </mxCell>
                <mxCell id="i2T4uCl2rIpVRViZEnEd-17" value="1" style="text;html=1;align=center;verticalAlign=middle;resizable=0;points=[];autosize=1;strokeColor=none;fillColor=none;" parent="1" vertex="1">
                    <mxGeometry x="250" y="360" width="30" height="30" as="geometry"/>
                </mxCell>
                <mxCell id="i2T4uCl2rIpVRViZEnEd-19" value="" style="edgeStyle=orthogonalEdgeStyle;rounded=0;orthogonalLoop=1;jettySize=auto;html=1;entryX=1;entryY=0.5;entryDx=0;entryDy=0;endArrow=none;endFill=0;exitX=0;exitY=0.5;exitDx=0;exitDy=0;" parent="1" source="i2T4uCl2rIpVRViZEnEd-1" target="i2T4uCl2rIpVRViZEnEd-20" edge="1">
                    <mxGeometry relative="1" as="geometry">
                        <mxPoint x="480" y="607.5" as="sourcePoint"/>
                        <mxPoint x="495" y="537.5" as="targetPoint"/>
                    </mxGeometry>
                </mxCell>
                <mxCell id="i2T4uCl2rIpVRViZEnEd-20" value="Has a" style="shape=rhombus;perimeter=rhombusPerimeter;whiteSpace=wrap;html=1;align=center;" parent="1" vertex="1">
                    <mxGeometry x="340" y="507.5" width="120" height="60" as="geometry"/>
                </mxCell>
                <mxCell id="i2T4uCl2rIpVRViZEnEd-21" value="1" style="text;html=1;align=center;verticalAlign=middle;resizable=0;points=[];autosize=1;strokeColor=none;fillColor=none;" parent="1" vertex="1">
                    <mxGeometry x="460" y="507.5" width="30" height="30" as="geometry"/>
                </mxCell>
                <mxCell id="i2T4uCl2rIpVRViZEnEd-22" value="n" style="text;html=1;align=center;verticalAlign=middle;resizable=0;points=[];autosize=1;strokeColor=none;fillColor=none;" parent="1" vertex="1">
                    <mxGeometry x="310" y="507.5" width="30" height="30" as="geometry"/>
                </mxCell>
                <mxCell id="i2T4uCl2rIpVRViZEnEd-23" value="n" style="text;html=1;align=center;verticalAlign=middle;resizable=0;points=[];autosize=1;strokeColor=none;fillColor=none;" parent="1" vertex="1">
                    <mxGeometry x="255" y="450" width="30" height="30" as="geometry"/>
                </mxCell>
                <mxCell id="i2T4uCl2rIpVRViZEnEd-28" value="Location(1)" style="whiteSpace=wrap;html=1;align=center;" parent="1" vertex="1">
                    <mxGeometry x="510" y="70" width="100" height="40" as="geometry"/>
                </mxCell>
                <mxCell id="i2T4uCl2rIpVRViZEnEd-31" value="In a" style="shape=rhombus;perimeter=rhombusPerimeter;whiteSpace=wrap;html=1;align=center;" parent="1" vertex="1">
                    <mxGeometry x="500" y="170" width="120" height="60" as="geometry"/>
                </mxCell>
                <mxCell id="i2T4uCl2rIpVRViZEnEd-40" value="" style="edgeStyle=orthogonalEdgeStyle;rounded=0;orthogonalLoop=1;jettySize=auto;html=1;entryX=0;entryY=0.5;entryDx=0;entryDy=0;endArrow=none;endFill=0;" parent="1" source="i2T4uCl2rIpVRViZEnEd-4" target="i2T4uCl2rIpVRViZEnEd-41" edge="1">
                    <mxGeometry relative="1" as="geometry">
                        <mxPoint x="300" y="311" as="sourcePoint"/>
                        <mxPoint x="560" y="340" as="targetPoint"/>
                    </mxGeometry>
                </mxCell>
                <mxCell id="4" style="edgeStyle=none;html=1;entryX=0;entryY=0.5;entryDx=0;entryDy=0;shape=link;" parent="1" source="i2T4uCl2rIpVRViZEnEd-41" target="i2T4uCl2rIpVRViZEnEd-2" edge="1">
                    <mxGeometry relative="1" as="geometry"/>
                </mxCell>
                <mxCell id="i2T4uCl2rIpVRViZEnEd-41" value="Can Admin" style="shape=rhombus;perimeter=rhombusPerimeter;whiteSpace=wrap;html=1;align=center;" parent="1" vertex="1">
                    <mxGeometry x="340" y="280" width="120" height="60" as="geometry"/>
                </mxCell>
                <mxCell id="i2T4uCl2rIpVRViZEnEd-42" value="1" style="text;html=1;align=center;verticalAlign=middle;resizable=0;points=[];autosize=1;strokeColor=none;fillColor=none;" parent="1" vertex="1">
                    <mxGeometry x="310" y="275" width="30" height="30" as="geometry"/>
                </mxCell>
                <mxCell id="i2T4uCl2rIpVRViZEnEd-43" value="1" style="text;html=1;align=center;verticalAlign=middle;resizable=0;points=[];autosize=1;strokeColor=none;fillColor=none;" parent="1" vertex="1">
                    <mxGeometry x="460" y="280" width="30" height="30" as="geometry"/>
                </mxCell>
                <mxCell id="5" value="" style="endArrow=none;html=1;entryX=0.5;entryY=1;entryDx=0;entryDy=0;exitX=0.5;exitY=0;exitDx=0;exitDy=0;" parent="1" source="i2T4uCl2rIpVRViZEnEd-2" target="i2T4uCl2rIpVRViZEnEd-31" edge="1">
                    <mxGeometry width="50" height="50" relative="1" as="geometry">
                        <mxPoint x="490" y="340" as="sourcePoint"/>
                        <mxPoint x="540" y="290" as="targetPoint"/>
                    </mxGeometry>
                </mxCell>
                <mxCell id="7" value="" style="endArrow=none;html=1;entryX=0.5;entryY=1;entryDx=0;entryDy=0;exitX=0.5;exitY=0;exitDx=0;exitDy=0;" parent="1" source="i2T4uCl2rIpVRViZEnEd-31" target="i2T4uCl2rIpVRViZEnEd-28" edge="1">
                    <mxGeometry width="50" height="50" relative="1" as="geometry">
                        <mxPoint x="490" y="340" as="sourcePoint"/>
                        <mxPoint x="540" y="290" as="targetPoint"/>
                    </mxGeometry>
                </mxCell>
                <mxCell id="mxp_iHFHXZB1s1TXaWPG-7" value="Wine_ID" style="ellipse;whiteSpace=wrap;html=1;align=center;fontStyle=4;" parent="1" vertex="1">
                    <mxGeometry x="693" y="450" width="85" height="30" as="geometry"/>
                </mxCell>
                <mxCell id="mxp_iHFHXZB1s1TXaWPG-8" value="Winery_ID" style="ellipse;whiteSpace=wrap;html=1;align=center;" parent="1" vertex="1">
                    <mxGeometry x="693" y="485" width="85" height="32.5" as="geometry"/>
                </mxCell>
                <mxCell id="mxp_iHFHXZB1s1TXaWPG-10" value="Name" style="ellipse;whiteSpace=wrap;html=1;align=center;" parent="1" vertex="1">
                    <mxGeometry x="693" y="522.5" width="85" height="30" as="geometry"/>
                </mxCell>
                <mxCell id="mxp_iHFHXZB1s1TXaWPG-11" value="Image" style="ellipse;whiteSpace=wrap;html=1;align=center;" parent="1" vertex="1">
                    <mxGeometry x="608" y="599.75" width="80" height="30" as="geometry"/>
                </mxCell>
                <mxCell id="mxp_iHFHXZB1s1TXaWPG-12" value="Available" style="ellipse;whiteSpace=wrap;html=1;align=center;" parent="1" vertex="1">
                    <mxGeometry x="428" y="599.75" width="80" height="30" as="geometry"/>
                </mxCell>
                <mxCell id="mxp_iHFHXZB1s1TXaWPG-13" value="Type" style="ellipse;whiteSpace=wrap;html=1;align=center;" parent="1" vertex="1">
                    <mxGeometry x="693" y="598.75" width="85" height="30" as="geometry"/>
                </mxCell>
                <mxCell id="mxp_iHFHXZB1s1TXaWPG-14" value="Year" style="ellipse;whiteSpace=wrap;html=1;align=center;" parent="1" vertex="1">
                    <mxGeometry x="693" y="560" width="85" height="32.5" as="geometry"/>
                </mxCell>
                <mxCell id="mxp_iHFHXZB1s1TXaWPG-15" value="Price" style="ellipse;whiteSpace=wrap;html=1;align=center;" parent="1" vertex="1">
                    <mxGeometry x="518" y="601" width="80" height="30" as="geometry"/>
                </mxCell>
                <mxCell id="mxp_iHFHXZB1s1TXaWPG-25" value="Winery_ID" style="ellipse;whiteSpace=wrap;html=1;align=center;fontStyle=4;" parent="1" vertex="1">
                    <mxGeometry x="711.25" y="207.25" width="83.75" height="30" as="geometry"/>
                </mxCell>
                <mxCell id="mxp_iHFHXZB1s1TXaWPG-27" value="Name" style="ellipse;whiteSpace=wrap;html=1;align=center;" parent="1" vertex="1">
                    <mxGeometry x="711.25" y="245.5" width="83.75" height="30" as="geometry"/>
                </mxCell>
                <mxCell id="mxp_iHFHXZB1s1TXaWPG-28" value="" style="endArrow=none;html=1;rounded=0;entryX=0;entryY=0.5;entryDx=0;entryDy=0;exitX=1;exitY=0.5;exitDx=0;exitDy=0;" parent="1" source="i2T4uCl2rIpVRViZEnEd-2" target="mxp_iHFHXZB1s1TXaWPG-25" edge="1">
                    <mxGeometry relative="1" as="geometry">
                        <mxPoint x="340" y="350" as="sourcePoint"/>
                        <mxPoint x="500" y="350" as="targetPoint"/>
                    </mxGeometry>
                </mxCell>
                <mxCell id="mxp_iHFHXZB1s1TXaWPG-29" value="" style="endArrow=none;html=1;rounded=0;entryX=0;entryY=0.5;entryDx=0;entryDy=0;exitX=1;exitY=0.5;exitDx=0;exitDy=0;" parent="1" source="i2T4uCl2rIpVRViZEnEd-2" target="mxp_iHFHXZB1s1TXaWPG-27" edge="1">
                    <mxGeometry relative="1" as="geometry">
                        <mxPoint x="340" y="350" as="sourcePoint"/>
                        <mxPoint x="500" y="350" as="targetPoint"/>
                    </mxGeometry>
                </mxCell>
                <mxCell id="mxp_iHFHXZB1s1TXaWPG-30" value="Admin_ID" style="ellipse;whiteSpace=wrap;html=1;align=center;" parent="1" vertex="1">
                    <mxGeometry x="710" y="279.5" width="85" height="26" as="geometry"/>
                </mxCell>
                <mxCell id="mxp_iHFHXZB1s1TXaWPG-31" value="" style="endArrow=none;html=1;rounded=0;entryX=0;entryY=0.5;entryDx=0;entryDy=0;exitX=1;exitY=0.5;exitDx=0;exitDy=0;" parent="1" source="i2T4uCl2rIpVRViZEnEd-2" target="mxp_iHFHXZB1s1TXaWPG-30" edge="1">
                    <mxGeometry relative="1" as="geometry">
                        <mxPoint x="340" y="350" as="sourcePoint"/>
                        <mxPoint x="500" y="350" as="targetPoint"/>
                    </mxGeometry>
                </mxCell>
                <mxCell id="mxp_iHFHXZB1s1TXaWPG-32" value="Location_ID" style="ellipse;whiteSpace=wrap;html=1;align=center;" parent="1" vertex="1">
                    <mxGeometry x="710" y="314.25" width="85" height="30" as="geometry"/>
                </mxCell>
                <mxCell id="mxp_iHFHXZB1s1TXaWPG-33" value="" style="endArrow=none;html=1;rounded=0;entryX=0;entryY=0.5;entryDx=0;entryDy=0;exitX=1;exitY=0.5;exitDx=0;exitDy=0;" parent="1" source="i2T4uCl2rIpVRViZEnEd-2" target="mxp_iHFHXZB1s1TXaWPG-32" edge="1">
                    <mxGeometry relative="1" as="geometry">
                        <mxPoint x="340" y="350" as="sourcePoint"/>
                        <mxPoint x="500" y="350" as="targetPoint"/>
                    </mxGeometry>
                </mxCell>
                <mxCell id="mxp_iHFHXZB1s1TXaWPG-34" value="Image" style="ellipse;whiteSpace=wrap;html=1;align=center;" parent="1" vertex="1">
                    <mxGeometry x="710" y="350" width="85" height="30" as="geometry"/>
                </mxCell>
                <mxCell id="mxp_iHFHXZB1s1TXaWPG-35" value="" style="endArrow=none;html=1;rounded=0;entryX=0;entryY=0.5;entryDx=0;entryDy=0;exitX=1;exitY=0.5;exitDx=0;exitDy=0;" parent="1" source="i2T4uCl2rIpVRViZEnEd-2" target="mxp_iHFHXZB1s1TXaWPG-34" edge="1">
                    <mxGeometry relative="1" as="geometry">
                        <mxPoint x="340" y="350" as="sourcePoint"/>
                        <mxPoint x="500" y="350" as="targetPoint"/>
                    </mxGeometry>
                </mxCell>
                <mxCell id="mxp_iHFHXZB1s1TXaWPG-38" value="Location_ID" style="ellipse;whiteSpace=wrap;html=1;align=center;fontStyle=4;" parent="1" vertex="1">
                    <mxGeometry x="660" y="10" width="90" height="30" as="geometry"/>
                </mxCell>
                <mxCell id="mxp_iHFHXZB1s1TXaWPG-41" value="" style="endArrow=none;html=1;rounded=0;entryX=0.5;entryY=0;entryDx=0;entryDy=0;exitX=0.5;exitY=1;exitDx=0;exitDy=0;" parent="1" source="mxp_iHFHXZB1s1TXaWPG-38" target="i2T4uCl2rIpVRViZEnEd-28" edge="1">
                    <mxGeometry relative="1" as="geometry">
                        <mxPoint x="340" y="200" as="sourcePoint"/>
                        <mxPoint x="500" y="200" as="targetPoint"/>
                    </mxGeometry>
                </mxCell>
                <mxCell id="mxp_iHFHXZB1s1TXaWPG-43" value="User_ID" style="ellipse;whiteSpace=wrap;html=1;align=center;fontStyle=4;" parent="1" vertex="1">
                    <mxGeometry x="80" y="237.25" width="80" height="30" as="geometry"/>
                </mxCell>
                <mxCell id="mxp_iHFHXZB1s1TXaWPG-44" value="First_Name" style="ellipse;whiteSpace=wrap;html=1;align=center;" parent="1" vertex="1">
                    <mxGeometry x="80" y="277.75" width="80" height="26" as="geometry"/>
                </mxCell>
                <mxCell id="mxp_iHFHXZB1s1TXaWPG-45" value="Last_Name" style="ellipse;whiteSpace=wrap;html=1;align=center;" parent="1" vertex="1">
                    <mxGeometry x="80" y="314.25" width="80" height="30" as="geometry"/>
                </mxCell>
                <mxCell id="mxp_iHFHXZB1s1TXaWPG-46" value="Is_Expert" style="ellipse;whiteSpace=wrap;html=1;align=center;" parent="1" vertex="1">
                    <mxGeometry x="80" y="354.25" width="80" height="29.5" as="geometry"/>
                </mxCell>
                <mxCell id="mxp_iHFHXZB1s1TXaWPG-47" value="" style="endArrow=none;html=1;rounded=0;exitX=1;exitY=0.5;exitDx=0;exitDy=0;entryX=0;entryY=0.5;entryDx=0;entryDy=0;" parent="1" source="mxp_iHFHXZB1s1TXaWPG-46" target="i2T4uCl2rIpVRViZEnEd-4" edge="1">
                    <mxGeometry relative="1" as="geometry">
                        <mxPoint x="340" y="490" as="sourcePoint"/>
                        <mxPoint x="500" y="490" as="targetPoint"/>
                    </mxGeometry>
                </mxCell>
                <mxCell id="mxp_iHFHXZB1s1TXaWPG-48" value="" style="endArrow=none;html=1;rounded=0;exitX=1;exitY=0.5;exitDx=0;exitDy=0;entryX=0;entryY=0.5;entryDx=0;entryDy=0;" parent="1" source="mxp_iHFHXZB1s1TXaWPG-45" target="i2T4uCl2rIpVRViZEnEd-4" edge="1">
                    <mxGeometry relative="1" as="geometry">
                        <mxPoint x="340" y="490" as="sourcePoint"/>
                        <mxPoint x="500" y="490" as="targetPoint"/>
                    </mxGeometry>
                </mxCell>
                <mxCell id="mxp_iHFHXZB1s1TXaWPG-49" value="" style="endArrow=none;html=1;rounded=0;exitX=1;exitY=0.5;exitDx=0;exitDy=0;entryX=0;entryY=0.5;entryDx=0;entryDy=0;" parent="1" source="mxp_iHFHXZB1s1TXaWPG-44" target="i2T4uCl2rIpVRViZEnEd-4" edge="1">
                    <mxGeometry relative="1" as="geometry">
                        <mxPoint x="340" y="490" as="sourcePoint"/>
                        <mxPoint x="500" y="490" as="targetPoint"/>
                    </mxGeometry>
                </mxCell>
                <mxCell id="mxp_iHFHXZB1s1TXaWPG-50" value="" style="endArrow=none;html=1;rounded=0;exitX=1;exitY=0.5;exitDx=0;exitDy=0;entryX=0;entryY=0.5;entryDx=0;entryDy=0;" parent="1" source="mxp_iHFHXZB1s1TXaWPG-43" target="i2T4uCl2rIpVRViZEnEd-4" edge="1">
                    <mxGeometry relative="1" as="geometry">
                        <mxPoint x="340" y="490" as="sourcePoint"/>
                        <mxPoint x="500" y="490" as="targetPoint"/>
                    </mxGeometry>
                </mxCell>
                <mxCell id="mxp_iHFHXZB1s1TXaWPG-57" value="" style="endArrow=none;html=1;rounded=0;entryX=0;entryY=0.5;entryDx=0;entryDy=0;exitX=1;exitY=0.5;exitDx=0;exitDy=0;" parent="1" source="i2T4uCl2rIpVRViZEnEd-1" target="mxp_iHFHXZB1s1TXaWPG-7" edge="1">
                    <mxGeometry relative="1" as="geometry">
                        <mxPoint x="340" y="490" as="sourcePoint"/>
                        <mxPoint x="500" y="490" as="targetPoint"/>
                    </mxGeometry>
                </mxCell>
                <mxCell id="mxp_iHFHXZB1s1TXaWPG-58" value="" style="endArrow=none;html=1;rounded=0;entryX=0;entryY=0.5;entryDx=0;entryDy=0;exitX=1;exitY=0.5;exitDx=0;exitDy=0;" parent="1" source="i2T4uCl2rIpVRViZEnEd-1" target="mxp_iHFHXZB1s1TXaWPG-8" edge="1">
                    <mxGeometry relative="1" as="geometry">
                        <mxPoint x="340" y="490" as="sourcePoint"/>
                        <mxPoint x="500" y="490" as="targetPoint"/>
                    </mxGeometry>
                </mxCell>
                <mxCell id="mxp_iHFHXZB1s1TXaWPG-59" value="" style="endArrow=none;html=1;rounded=0;entryX=0;entryY=0.5;entryDx=0;entryDy=0;exitX=1;exitY=0.5;exitDx=0;exitDy=0;" parent="1" source="i2T4uCl2rIpVRViZEnEd-1" target="mxp_iHFHXZB1s1TXaWPG-10" edge="1">
                    <mxGeometry relative="1" as="geometry">
                        <mxPoint x="340" y="490" as="sourcePoint"/>
                        <mxPoint x="500" y="490" as="targetPoint"/>
                    </mxGeometry>
                </mxCell>
                <mxCell id="mxp_iHFHXZB1s1TXaWPG-60" value="" style="endArrow=none;html=1;rounded=0;entryX=0;entryY=0.5;entryDx=0;entryDy=0;exitX=1;exitY=0.5;exitDx=0;exitDy=0;" parent="1" source="i2T4uCl2rIpVRViZEnEd-1" target="mxp_iHFHXZB1s1TXaWPG-14" edge="1">
                    <mxGeometry relative="1" as="geometry">
                        <mxPoint x="340" y="490" as="sourcePoint"/>
                        <mxPoint x="500" y="490" as="targetPoint"/>
                    </mxGeometry>
                </mxCell>
                <mxCell id="mxp_iHFHXZB1s1TXaWPG-61" value="" style="endArrow=none;html=1;rounded=0;entryX=0;entryY=0;entryDx=0;entryDy=0;exitX=1;exitY=0.5;exitDx=0;exitDy=0;" parent="1" source="i2T4uCl2rIpVRViZEnEd-1" target="mxp_iHFHXZB1s1TXaWPG-13" edge="1">
                    <mxGeometry relative="1" as="geometry">
                        <mxPoint x="340" y="490" as="sourcePoint"/>
                        <mxPoint x="500" y="490" as="targetPoint"/>
                    </mxGeometry>
                </mxCell>
                <mxCell id="mxp_iHFHXZB1s1TXaWPG-62" value="" style="endArrow=none;html=1;rounded=0;entryX=0.5;entryY=0;entryDx=0;entryDy=0;exitX=0.5;exitY=1;exitDx=0;exitDy=0;" parent="1" source="i2T4uCl2rIpVRViZEnEd-1" target="mxp_iHFHXZB1s1TXaWPG-12" edge="1">
                    <mxGeometry relative="1" as="geometry">
                        <mxPoint x="340" y="490" as="sourcePoint"/>
                        <mxPoint x="500" y="490" as="targetPoint"/>
                    </mxGeometry>
                </mxCell>
                <mxCell id="mxp_iHFHXZB1s1TXaWPG-63" value="" style="endArrow=none;html=1;rounded=0;entryX=0.5;entryY=0;entryDx=0;entryDy=0;exitX=0.5;exitY=1;exitDx=0;exitDy=0;" parent="1" source="i2T4uCl2rIpVRViZEnEd-1" target="mxp_iHFHXZB1s1TXaWPG-15" edge="1">
                    <mxGeometry relative="1" as="geometry">
                        <mxPoint x="340" y="490" as="sourcePoint"/>
                        <mxPoint x="500" y="490" as="targetPoint"/>
                    </mxGeometry>
                </mxCell>
                <mxCell id="mxp_iHFHXZB1s1TXaWPG-64" value="" style="endArrow=none;html=1;rounded=0;entryX=0.5;entryY=0;entryDx=0;entryDy=0;exitX=0.5;exitY=1;exitDx=0;exitDy=0;" parent="1" source="i2T4uCl2rIpVRViZEnEd-1" target="mxp_iHFHXZB1s1TXaWPG-11" edge="1">
                    <mxGeometry relative="1" as="geometry">
                        <mxPoint x="340" y="490" as="sourcePoint"/>
                        <mxPoint x="500" y="490" as="targetPoint"/>
                    </mxGeometry>
                </mxCell>
                <mxCell id="mxp_iHFHXZB1s1TXaWPG-68" value="Rating" style="ellipse;whiteSpace=wrap;html=1;align=center;" parent="1" vertex="1">
                    <mxGeometry x="80" y="562.5" width="80" height="27.5" as="geometry"/>
                </mxCell>
                <mxCell id="mxp_iHFHXZB1s1TXaWPG-69" value="" style="endArrow=none;html=1;rounded=0;exitX=1;exitY=0.5;exitDx=0;exitDy=0;entryX=0;entryY=0.5;entryDx=0;entryDy=0;" parent="1" target="i2T4uCl2rIpVRViZEnEd-3" edge="1">
                    <mxGeometry relative="1" as="geometry">
                        <mxPoint x="150" y="503.75" as="sourcePoint"/>
                        <mxPoint x="500" y="490" as="targetPoint"/>
                    </mxGeometry>
                </mxCell>
                <mxCell id="mxp_iHFHXZB1s1TXaWPG-70" value="" style="endArrow=none;html=1;rounded=0;exitX=1;exitY=0.5;exitDx=0;exitDy=0;entryX=0;entryY=0.5;entryDx=0;entryDy=0;" parent="1" target="i2T4uCl2rIpVRViZEnEd-3" edge="1">
                    <mxGeometry relative="1" as="geometry">
                        <mxPoint x="160" y="536.25" as="sourcePoint"/>
                        <mxPoint x="500" y="490" as="targetPoint"/>
                    </mxGeometry>
                </mxCell>
                <mxCell id="mxp_iHFHXZB1s1TXaWPG-71" value="" style="endArrow=none;html=1;rounded=0;exitX=1;exitY=0.5;exitDx=0;exitDy=0;entryX=0;entryY=0.5;entryDx=0;entryDy=0;" parent="1" source="mxp_iHFHXZB1s1TXaWPG-68" target="i2T4uCl2rIpVRViZEnEd-3" edge="1">
                    <mxGeometry relative="1" as="geometry">
                        <mxPoint x="340" y="490" as="sourcePoint"/>
                        <mxPoint x="500" y="490" as="targetPoint"/>
                    </mxGeometry>
                </mxCell>
                <mxCell id="F3w1Fz1lBMKt3vwWfELA-7" value="Country" style="ellipse;whiteSpace=wrap;html=1;align=center;" parent="1" vertex="1">
                    <mxGeometry x="565" y="10" width="90" height="30" as="geometry"/>
                </mxCell>
                <mxCell id="F3w1Fz1lBMKt3vwWfELA-8" value="" style="endArrow=none;html=1;rounded=0;entryX=0.5;entryY=1;entryDx=0;entryDy=0;exitX=0.5;exitY=0;exitDx=0;exitDy=0;" parent="1" source="i2T4uCl2rIpVRViZEnEd-28" target="F3w1Fz1lBMKt3vwWfELA-7" edge="1">
                    <mxGeometry relative="1" as="geometry">
                        <mxPoint x="340" y="170" as="sourcePoint"/>
                        <mxPoint x="500" y="170" as="targetPoint"/>
                    </mxGeometry>
                </mxCell>
                <mxCell id="F3w1Fz1lBMKt3vwWfELA-9" value="Region" style="ellipse;whiteSpace=wrap;html=1;align=center;" parent="1" vertex="1">
                    <mxGeometry x="470" y="10" width="90" height="30" as="geometry"/>
                </mxCell>
                <mxCell id="F3w1Fz1lBMKt3vwWfELA-10" value="" style="endArrow=none;html=1;rounded=0;entryX=0.5;entryY=1;entryDx=0;entryDy=0;exitX=0.5;exitY=0;exitDx=0;exitDy=0;" parent="1" source="i2T4uCl2rIpVRViZEnEd-28" target="F3w1Fz1lBMKt3vwWfELA-9" edge="1">
                    <mxGeometry relative="1" as="geometry">
                        <mxPoint x="340" y="170" as="sourcePoint"/>
                        <mxPoint x="500" y="170" as="targetPoint"/>
                    </mxGeometry>
                </mxCell>
                <mxCell id="F3w1Fz1lBMKt3vwWfELA-11" value="Postal_Code" style="ellipse;whiteSpace=wrap;html=1;align=center;" parent="1" vertex="1">
                    <mxGeometry x="370" y="10" width="90" height="30" as="geometry"/>
                </mxCell>
                <mxCell id="F3w1Fz1lBMKt3vwWfELA-12" value="Category" style="ellipse;whiteSpace=wrap;html=1;align=center;" parent="1" vertex="1">
                    <mxGeometry x="340" y="599.75" width="80" height="30.25" as="geometry"/>
                </mxCell>
                <mxCell id="F3w1Fz1lBMKt3vwWfELA-13" value="" style="endArrow=none;html=1;rounded=0;entryX=0.5;entryY=1;entryDx=0;entryDy=0;exitX=0.5;exitY=0;exitDx=0;exitDy=0;" parent="1" source="F3w1Fz1lBMKt3vwWfELA-12" target="i2T4uCl2rIpVRViZEnEd-1" edge="1">
                    <mxGeometry relative="1" as="geometry">
                        <mxPoint x="340" y="470" as="sourcePoint"/>
                        <mxPoint x="500" y="470" as="targetPoint"/>
                    </mxGeometry>
                </mxCell>
                <mxCell id="F3w1Fz1lBMKt3vwWfELA-14" value="" style="endArrow=none;html=1;rounded=0;exitX=1;exitY=1;exitDx=0;exitDy=0;" parent="1" source="F3w1Fz1lBMKt3vwWfELA-11" edge="1">
                    <mxGeometry relative="1" as="geometry">
                        <mxPoint x="340" y="70" as="sourcePoint"/>
                        <mxPoint x="560" y="70" as="targetPoint"/>
                    </mxGeometry>
                </mxCell>
                <mxCell id="F3w1Fz1lBMKt3vwWfELA-15" value="Street_Name" style="ellipse;whiteSpace=wrap;html=1;align=center;" parent="1" vertex="1">
                    <mxGeometry x="370" y="50" width="90" height="30" as="geometry"/>
                </mxCell>
                <mxCell id="F3w1Fz1lBMKt3vwWfELA-16" value="Street_Number" style="ellipse;whiteSpace=wrap;html=1;align=center;" parent="1" vertex="1">
                    <mxGeometry x="370" y="90" width="90" height="30" as="geometry"/>
                </mxCell>
                <mxCell id="F3w1Fz1lBMKt3vwWfELA-17" value="" style="endArrow=none;html=1;rounded=0;entryX=0;entryY=0.5;entryDx=0;entryDy=0;exitX=1;exitY=0.5;exitDx=0;exitDy=0;" parent="1" source="F3w1Fz1lBMKt3vwWfELA-15" target="i2T4uCl2rIpVRViZEnEd-28" edge="1">
                    <mxGeometry relative="1" as="geometry">
                        <mxPoint x="340" y="70" as="sourcePoint"/>
                        <mxPoint x="500" y="70" as="targetPoint"/>
                    </mxGeometry>
                </mxCell>
                <mxCell id="F3w1Fz1lBMKt3vwWfELA-18" value="" style="endArrow=none;html=1;rounded=0;entryX=0;entryY=0.5;entryDx=0;entryDy=0;exitX=1;exitY=0.5;exitDx=0;exitDy=0;" parent="1" source="F3w1Fz1lBMKt3vwWfELA-16" target="i2T4uCl2rIpVRViZEnEd-28" edge="1">
                    <mxGeometry relative="1" as="geometry">
                        <mxPoint x="340" y="70" as="sourcePoint"/>
                        <mxPoint x="500" y="70" as="targetPoint"/>
                    </mxGeometry>
                </mxCell>
                <mxCell id="8" value="Creates" style="rhombus;whiteSpace=wrap;html=1;" parent="1" vertex="1">
                    <mxGeometry x="205" y="390" width="90" height="45.75" as="geometry"/>
                </mxCell>
                <mxCell id="2m9zfWuHGmiGomFQiGaS-7" value="1" style="text;html=1;align=center;verticalAlign=middle;resizable=0;points=[];autosize=1;strokeColor=none;fillColor=none;" parent="1" vertex="1">
                    <mxGeometry x="530" y="140" width="30" height="30" as="geometry"/>
                </mxCell>
                <mxCell id="2m9zfWuHGmiGomFQiGaS-8" value="1" style="text;html=1;align=center;verticalAlign=middle;resizable=0;points=[];autosize=1;strokeColor=none;fillColor=none;" parent="1" vertex="1">
                    <mxGeometry x="530" y="230" width="30" height="30" as="geometry"/>
                </mxCell>
                <mxCell id="9" value="Has a" style="shape=rhombus;perimeter=rhombusPerimeter;whiteSpace=wrap;html=1;align=center;" parent="1" vertex="1">
                    <mxGeometry x="350" y="511.25" width="100" height="52.5" as="geometry"/>
                </mxCell>
                <mxCell id="10" value="Rating(5)" style="whiteSpace=wrap;html=1;align=center;" parent="1" vertex="1">
                    <mxGeometry x="207.5" y="522.5" width="85" height="30" as="geometry"/>
                </mxCell>
                <mxCell id="12" value="Wine_ID" style="ellipse;whiteSpace=wrap;html=1;" parent="1" vertex="1">
                    <mxGeometry x="80" y="480.25" width="72" height="31" as="geometry"/>
                </mxCell>
                <mxCell id="13" value="" style="endArrow=none;dashed=1;html=1;" parent="1" edge="1">
                    <mxGeometry width="50" height="50" relative="1" as="geometry">
                        <mxPoint x="139" y="504" as="sourcePoint"/>
                        <mxPoint x="90" y="504" as="targetPoint"/>
                    </mxGeometry>
                </mxCell>
                <mxCell id="15" value="User_ID" style="ellipse;whiteSpace=wrap;html=1;" parent="1" vertex="1">
                    <mxGeometry x="80" y="520" width="80" height="32.5" as="geometry"/>
                </mxCell>
                <mxCell id="14" value="" style="endArrow=none;dashed=1;html=1;" parent="1" edge="1">
                    <mxGeometry width="50" height="50" relative="1" as="geometry">
                        <mxPoint x="143" y="544" as="sourcePoint"/>
                        <mxPoint x="94" y="544" as="targetPoint"/>
                    </mxGeometry>
                </mxCell>
            </root>
        </mxGraphModel>
    </diagram>
</mxfile>